# AST/ASF file generated using VICON BodyLanguage
# -----------------------------------------------
:version 1.10
:name VICON
:units
  mass 1.0
  length 0.45
  angle deg
:documentation
   .ast/.asf automatically generated from VICON data using
   VICON BodyBuilder and BodyLanguage model FoxedUp or BRILLIANT.MOD
:root
   order TX TY TZ RX RY RZ
   axis XYZ
   position 0 0 0  
   orientation 0 0 0 
:bonedata
  begin
     id 1 
     name lhipjoint
     direction 0.693937 -0.600361 0.397515 
     length 2.37164 
     axis 0 0 0  XYZ
  end
  begin
     id 2 
     name lfemur
     direction 0.34202 -0.939693 0  
     length 6.18497  
     axis 0 0 20  XYZ
    dof rx ry rz
    limits (-160.0 20.0)
           (-70.0 70.0)
           (-60.0 70.0)
  end
  begin
     id 3 
     name ltibia
     direction 0.34202 -0.939693 0   
     length 6.91601   
     axis 0 0 20   XYZ
    dof rx
    limits (-10.0 170.0)
  end
  begin
     id 4 
     name lfoot
     direction 0.0978718 -0.2689 0.958182   
     length 1.81453   
     axis -90 7.62852e-016 20   XYZ
    dof rx rz
    limits (-45.0 90.0)
           (-70.0 20.0)
  end
  begin
     id 5 
     name ltoes
     direction 1.53569e-011 -4.21951e-011 1   
     length 0.912052   
     axis -90 7.62852e-016 20   XYZ
    dof rx
    limits (-90.0 20.0)
  end
  begin
     id 6 
     name rhipjoint
     direction -0.643996 -0.637876 0.422354   
     length 2.23216  
     axis 0 0 0  XYZ 
  end
  begin
     id 7 
     name rfemur
     direction -0.34202 -0.939693 0   
     length 6.15404   
     axis 0 0 -20   XYZ
    dof rx ry rz
    limits (-160.0 20.0)
           (-70.0 70.0)
           (-70.0 60.0)
  end
  begin
     id 8 
     name rtibia
     direction -0.34202 -0.939693 0   
     length 6.86744   
     axis 0 0 -20   XYZ
    dof rx
    limits (-10.0 170.0)
 end
 begin
     id 9 
     name rfoot
     direction -0.118701 -0.326127 0.937844   
     length 1.9243  
     axis -90 -7.62852e-016 -20   XYZ
    dof rx rz
    limits (-45.0 90.0)
           (-20.0 70.0)
  end
  begin
     id 10 
     name rtoes
     direction -1.5356e-011 -4.2181e-011 1   
     length 0.958865   
     axis -90 -7.62852e-016 -20   XYZ
    dof rx
    limits (-90.0 20.0)
  end
  begin
     id 11 
     name lowerback
     direction 0.0310826 0.968686 -0.246334   
     length 2.00021   
     axis 0 0 0   XYZ
    dof rx ry rz
    limits (-20.0 45.0)
           (-30.0 30.0)
           (-30.0 30.0)
  end
  begin
     id 12 
     name upperback
     direction -0.0152834 0.999474 -0.0286152   
     length 2.03728   
     axis 0 0 0   XYZ
    dof rx ry rz
    limits (-20.0 45.0)
           (-30.0 30.0)
           (-30.0 30.0)
  end
  begin
     id 13 
     name thorax
     direction -0.0323701 0.996236 0.0804149   
     length 2.16   
     axis 0 0 0   XYZ
    dof rx ry rz
    limits (-20.0 45.0)
           (-30.0 30.0)
           (-30.0 30.0)
  end
  begin
     id 14 
     name lowerneck
     direction 0.0307935 0.982251 0.185027   
     length 1.43558   
     axis 0 0 0   XYZ
    dof rx ry rz
    limits (-20.0 45.0)
           (-30.0 30.0)
           (-30.0 30.0)
  end
  begin
     id 15 
     name upperneck
     direction -0.0927153 0.994775 0.0427454   
     length 1.44603   
     axis 0 0 0   XYZ
    dof rx ry rz
    limits (-20.0 45.0)
           (-30.0 30.0)
           (-30.0 30.0)
  end
  begin
     id 16
     name head
     direction -0.0341265 0.999406 -0.00472033  
     length 1.45931  
     axis 0 0 0   XYZ
    dof rx ry rz
    limits (-20.0 45.0)
           (-30.0 30.0)
           (-30.0 30.0)
  end
  begin
     id 17 
     name lclavicle
     direction 0.820755 0.555306 -0.134151  
     length 2.66075  
     axis 0 0 0   XYZ
    dof ry rz
    limits (-20.0 10.0)
           (0.0 20.0)
  end
  begin
     id 18 
     name lhumerus
     direction 1 -4.48971e-011 5.24853e-027   
     length 5.0546   
     axis -180 -30 -90   XYZ
    dof rx ry rz
    limits (-60.0 90.0)
           (-90.0 90.0)
           (-90.0 90.0)
  end
  begin
     id 19
     name lradius
     direction 1 -4.48971e-011 2.76575e-028   
     length 3.39013   
     axis -180 -30 -90   XYZ
    dof rx
    limits (-10.0 170.0)
  end
  begin
     id 20
     name lwrist
     direction 1 -4.48939e-011 -2.27826e-027   
     length 1.69507   
     axis 2.17013e-015 90 90   XYZ
    dof ry
    limits (-180.0 0.0)
 end
  begin
     id 21 
     name lhand
     direction 1 -4.49009e-011 -4.55652e-027   
     length 0.572425   
     axis 2.90745e-015 90 90   XYZ
    dof rx rz
    limits (-90.0 90.0)
           (-45.0 45.0)
  end
  begin
     id 22 
     name lfingers
     direction 1 -4.48955e-011 -9.11303e-027   
     length 0.461504   
     axis 5.81489e-015 90 90   XYZ
    dof rx
    limits (0.0 90.0)
  end
  begin
     id 23
     name lthumb
     direction 0.707107 -6.34929e-011 0.707107   
     length 0.66263   
     axis -90 45 2.85299e-015   XYZ
    dof rx rz
    limits (-45.0 45.0)
           (-45.0 45.0)
  end
  begin
     id 24 
     name rclavicle
     direction -0.754477 0.632921 -0.173712   
     length 2.73081  
     axis 0 0 0   XYZ 
    dof ry rz
    limits (-10.0 20.0)
           (-20.0 0.0)
  end
  begin
     id 25 
     name rhumerus
     direction -1 -4.48969e-011 5.1496e-027  
     length 5.0701   
     axis -180 30 90   XYZ
    dof rx ry rz
    limits (-90.0 60.0)
           (-90.0 90.0)
           (-90.0 90.0)
  end
  begin
     id 26 
     name rradius
     direction -1 -4.48967e-011 -7.15624e-028   
     length 3.14957   
     axis -180 30 90   XYZ
    dof rx
    limits (-10.0 170.0)
  end
  begin
     id 27 
     name rwrist
     direction -1 -4.48938e-011 -2.27826e-027   
     length 1.57479   
     axis 2.17013e-015 -90 -90   XYZ
    dof ry
    limits (-180.0 0.0)
  end
  begin
     id 28
     name rhand
     direction -1 -4.49008e-011 -4.55652e-027   
     length 0.718191   
     axis 2.90745e-015 -90 -90   XYZ
    dof rx rz
    limits (-90.0 90.0)
           (-45.0 45.0)
  end
  begin
     id 29
     name rfingers
     direction -1 -4.48953e-011 -9.11303e-027   
     length 0.579024   
     axis 5.81489e-015 -90 -90   XYZ
    dof rx
    limits (0.0 90.0)
  end
  begin
     id 30
     name rthumb
     direction -0.707107 -6.34937e-011 0.707107   
     length 0.831366   
     axis -90 -45 -2.85299e-015   XYZ
    dof rx rz
    limits (-45.0 45.0)
           (-45.0 45.0)
  end
:hierarchy
  begin
    root lhipjoint rhipjoint lowerback
    lhipjoint lfemur
    lfemur ltibia
    ltibia lfoot
    lfoot ltoes
    rhipjoint rfemur
    rfemur rtibia
    rtibia rfoot
    rfoot rtoes
    lowerback upperback
    upperback thorax
    thorax lowerneck lclavicle rclavicle
    lowerneck upperneck
    upperneck head
    lclavicle lhumerus
    lhumerus lradius
    lradius lwrist
    lwrist lhand lthumb
    lhand lfingers
    rclavicle rhumerus
    rhumerus rradius
    rradius rwrist
    rwrist rhand rthumb
    rhand rfingers
  end

#!OML:ASF H:\Male1\Project 1\Capture day 1\Session 1\Male1.ASF
:FULLY-SPECIFIED
:DEGREES
1
root -25.7528 15.0134 -2.63794 -2.24462 -0.980179 1.45837
lowerback 4.39179 2.25835 0.291992
upperback 6.04132 3.08408 -2.28585
thorax 3.92285 1.61291 -2.5495
lowerneck -8.32054 4.13318 6.14737
upperneck 40.8717 3.47129 3.61647
head 16.0514 2.90338 1.02318
rclavicle -2.71341e-014 1.47101e-014
rhumerus -34.4493 0.473575 -86.739
rradius 35.5077
rwrist -19.2483
rhand -18.6248 1.18756
rfingers 7.12502
rthumb 7.66729 -28.6534
lclavicle -2.71341e-014 1.47101e-014
lhumerus -36.5884 -3.03897 83.7555
lradius 38.9785
lwrist 5.3076
lhand -17.7335 14.6422
lfingers 7.12502
lthumb 8.52754 44.45
rfemur -5.78386 14.9089 24.1576
rtibia 30.6135
rfoot -35.7428 -27.4886
rtoes -7.89998
lfemur -9.96015 -20.4594 -23.0993
ltibia 31.8523
lfoot -21.4415 21.222
ltoes -11.1143
2
root -25.7555 15.0121 -2.63827 -2.27393 -1.00663 1.47185
lowerback 4.41746 2.2563 0.251611
upperback 6.04659 3.07949 -2.2565
thorax 3.90967 1.6081 -2.49752
lowerneck -8.21801 4.14024 6.06803
upperneck 40.7973 3.50993 3.62081
head 15.983 2.90701 1.03848
rclavicle 2.69353e-014 -1.43125e-014
rhumerus -34.4822 0.503305 -86.71
rradius 35.5625
rwrist -19.2654
rhand -18.4272 1.17002
rfingers 7.12502
rthumb 7.858 -28.6639
lclavicle 2.69353e-014 -1.43125e-014
lhumerus -36.6075 -3.05122 83.796
lradius 39.0352
lwrist 5.31868
lhand -17.9087 15.0069
lfingers 7.12502
lthumb 8.35844 44.8215
rfemur -5.74637 14.9714 24.1752
rtibia 30.6283
rfoot -35.8135 -27.4686
rtoes -7.77239
lfemur -9.92904 -20.3997 -23.1057
ltibia 31.8462
lfoot -21.432 21.1861
ltoes -11.003
3
root -25.7584 15.0128 -2.63845 -2.29972 -1.01137 1.45844
lowerback 4.45393 2.24313 0.285821
upperback 6.03961 3.06148 -2.24318
thorax 3.88208 1.60001 -2.50445
lowerneck -8.12413 4.14947 5.97543
upperneck 40.7719 3.5371 3.66787
head 15.9415 2.91012 1.07511
rclavicle 1.799e-014 -2.14687e-014
rhumerus -34.5638 0.634183 -86.7575
rradius 35.671
rwrist -19.3567
rhand -18.3729 1.04571
rfingers 7.12502
rthumb 7.91041 -28.7863
lclavicle 1.799e-014 -2.14687e-014
lhumerus -36.6239 -2.98688 83.7897
lradius 39.0388
lwrist 5.28067
lhand -17.8739 15.1861
lfingers 7.12502
lthumb 8.39199 44.9993
rfemur -5.71515 15.0149 24.2157
rtibia 30.6391
rfoot -35.8737 -27.4454
rtoes -7.70013
lfemur -9.87692 -20.3656 -23.0911
ltibia 31.8308
lfoot -21.3967 21.1909
ltoes -11.1417
4
root -25.7613 15.0151 -2.63746 -2.32885 -1.03159 1.43212
lowerback 4.48228 2.25944 0.392556
upperback 6.04295 3.08549 -2.26154
thorax 3.87801 1.61706 -2.58442
lowerneck -8.11648 4.1473 5.97677
upperneck 40.7988 3.5201 3.70575
head 15.9532 2.90882 1.08969
rclavicle 1.68967e-015 -1.78906e-014
rhumerus -34.6046 0.66441 -86.8092
rradius 35.7298
rwrist -19.4907
rhand -18.3334 0.965201
rfingers 7.12502
rthumb 7.94856 -28.8654
lclavicle 1.68967e-015 -1.78906e-014
lhumerus -36.5953 -3.02615 83.7422
lradius 39.0319
lwrist 5.31889
lhand -17.7511 14.5425
lfingers 7.12502
lthumb 8.51051 44.351
rfemur -5.66291 15.1584 24.2706
rtibia 30.6225
rfoot -35.9912 -27.3962
rtoes -7.3886
lfemur -9.81652 -20.4913 -23.0908
ltibia 31.8478
lfoot -21.4336 21.3703
ltoes -11.2457
5
root -25.7599 15.0129 -2.63734 -2.34116 -1.00778 1.34426
lowerback 4.48728 2.25405 0.57495
upperback 6.0603 3.08151 -2.24462
thorax 3.90248 1.62267 -2.66869
lowerneck -8.1455 4.13802 5.98298
upperneck 40.8267 3.51822 3.66555
head 15.976 2.9045 1.07304
rclavicle -8.74653e-015 2.90226e-014
rhumerus -34.5684 0.582286 -86.7534
rradius 35.7321
rwrist -19.511
rhand -18.2026 0.970345
rfingers 7.12502
rthumb 8.07478 -28.8554
lclavicle -8.74653e-015 2.90226e-014
lhumerus -36.5356 -3.05793 83.7385
lradius 39.0359
lwrist 5.38159
lhand -17.6557 14.1299
lfingers 7.12502
lthumb 8.60258 43.9346
rfemur -5.62893 15.0466 24.3474
rtibia 30.6047
rfoot -35.9367 -27.3256
rtoes -7.37689
lfemur -9.79263 -20.6984 -23.0362
ltibia 31.8653
lfoot -21.4976 21.5285
ltoes -11.1906
6
root -25.7575 15.0112 -2.63846 -2.32194 -0.971984 1.25326
lowerback 4.46897 2.22843 0.725426
upperback 6.07199 3.04908 -2.19859
thorax 3.92889 1.61189 -2.70394
lowerneck -8.14014 4.14483 5.91541
upperneck 40.8072 3.54907 3.65808
head 15.9613 2.90615 1.08529
rclavicle -1.38155e-014 3.97569e-015
rhumerus -34.5109 0.544814 -86.6677
rradius 35.7168
rwrist -19.4889
rhand -18.2706 1.00029
rfingers 7.12502
rthumb 8.00919 -28.828
lclavicle -1.38155e-014 3.97569e-015
lhumerus -36.4766 -2.99915 83.7647
lradius 39.0253
lwrist 5.35201
lhand -17.481 14.112
lfingers 7.12502
lthumb 8.7712 43.9097
rfemur -5.65138 14.793 24.4002
rtibia 30.5892
rfoot -35.7657 -27.3026
rtoes -7.73727
lfemur -9.82192 -20.8055 -22.9496
ltibia 31.8819
lfoot -21.5048 21.5719
ltoes -11.208
7
root -25.7593 15.0122 -2.63813 -2.3133 -0.978054 1.31951
lowerback 4.44718 2.22785 0.663743
upperback 6.08186 3.04757 -2.19966
thorax 3.94799 1.60874 -2.66941
lowerneck -8.35818 4.18025 6.11971
upperneck 40.9759 3.60183 3.47608
head 16.1187 2.93776 0.992844
rclavicle 5.96354e-014 -1.19271e-014
rhumerus -34.468 0.522367 -86.6335
rradius 35.6806
rwrist -19.4663
rhand -18.4933 1.07043
rfingers 7.12502
rthumb 7.79421 -28.7659
lclavicle 5.96354e-014 -1.19271e-014
lhumerus -36.4173 -3.01394 83.774
lradius 38.985
lwrist 5.35943
lhand -17.7087 13.9799
lfingers 7.12502
lthumb 8.55142 43.7867
rfemur -5.66194 14.7548 24.322
rtibia 30.5734
rfoot -35.7244 -27.3242
rtoes -7.84502
lfemur -9.83292 -20.8146 -23.0173
ltibia 31.899
lfoot -21.4833 21.6032
ltoes -11.324
8
root -25.7617 15.0119 -2.63732 -2.29957 -0.976709 1.38197
lowerback 4.42856 2.22407 0.616699
upperback 6.07049 3.04229 -2.22155
thorax 3.9449 1.60453 -2.66519
lowerneck -8.2065 4.14799 6.00025
upperneck 40.808 3.5412 3.61737
head 15.9828 2.91028 1.05382
rclavicle 2.14687e-014 -3.89618e-014
rhumerus -34.4801 0.542402 -86.6546
rradius 35.6628
rwrist -19.4804
rhand -18.5059 1.1046
rfingers 7.12502
rthumb 7.78209 -28.7322
lclavicle 2.14687e-014 -3.89618e-014
lhumerus -36.3831 -3.10452 83.7548
lradius 38.9315
lwrist 5.50336
lhand -17.8408 13.7604
lfingers 7.12502
lthumb 8.42401 43.5724
rfemur -5.67622 14.7473 24.2585
rtibia 30.5804
rfoot -35.7463 -27.2951
rtoes -7.73282
lfemur -9.84442 -20.8052 -23.0698
ltibia 31.8896
lfoot -21.4919 21.567
ltoes -11.1903
9
root -25.7668 15.0121 -2.63683 -2.26451 -0.990519 1.37376
lowerback 4.39934 2.21563 0.597986
upperback 6.03864 3.03011 -2.2153
thorax 3.92573 1.597 -2.6476
lowerneck -8.08821 4.13768 5.99249
upperneck 40.7609 3.54182 3.60571
head 15.9288 2.90689 1.04442
rclavicle -3.39922e-014 3.57812e-015
rhumerus -34.5261 0.601359 -86.6728
rradius 35.6734
rwrist -19.5074
rhand -18.2797 1.10112
rfingers 7.12502
rthumb 8.0004 -28.7275
lclavicle -3.39922e-014 3.57812e-015
lhumerus -36.4024 -3.08669 83.7087
lradius 38.9004
lwrist 5.60077
lhand -17.8221 13.6507
lfingers 7.12502
lthumb 8.44207 43.462
rfemur -5.72334 14.8616 24.3041
rtibia 30.6173
rfoot -35.851 -27.3077
rtoes -7.53001
lfemur -9.87929 -20.7942 -23.0116
ltibia 31.8467
lfoot -21.5091 21.5138
ltoes -10.953
10
root -25.7727 15.0137 -2.63725 -2.25829 -0.986379 1.40023
lowerback 4.39284 2.20275 0.533716
upperback 6.03765 3.01171 -2.21205
thorax 3.92357 1.58494 -2.60795
lowerneck -8.01852 4.1357 5.99509
upperneck 40.7255 3.55 3.58876
head 15.8937 2.90763 1.03413
rclavicle 2.39536e-014 -3.97569e-015
rhumerus -34.5272 0.623321 -86.6693
rradius 35.6867
rwrist -19.4863
rhand -18.2667 1.16486
rfingers 7.12502
rthumb 8.01292 -28.6632
lclavicle 2.39536e-014 -3.97569e-015
lhumerus -36.3844 -3.05262 83.6642
lradius 38.8795
lwrist 5.61283
lhand -17.8964 13.6547
lfingers 7.12502
lthumb 8.37028 43.4688
rfemur -5.7314 15.0467 24.328
rtibia 30.6455
rfoot -35.9116 -27.3904
rtoes -7.3995
lfemur -9.88514 -20.704 -22.9997
ltibia 31.8096
lfoot -21.4177 21.499
ltoes -11.2092
